<svg width="980" height="720" viewBox="0 0 980 720" fill="none" xmlns="http://www.w3.org/2000/svg">
  <defs>
    <linearGradient id="bg" x1="120" y1="80" x2="860" y2="640" gradientUnits="userSpaceOnUse">
      <stop stop-color="#0E1427" />
      <stop offset="0.5" stop-color="#182540" />
      <stop offset="1" stop-color="#0E1422" />
    </linearGradient>
    <linearGradient id="sun" x1="180" y1="120" x2="120" y2="360" gradientUnits="userSpaceOnUse">
      <stop stop-color="#F5CF6D" stop-opacity="0.9" />
      <stop offset="1" stop-color="#F5CF6D" stop-opacity="0" />
    </linearGradient>
    <linearGradient id="vest" x1="540" y1="260" x2="650" y2="560" gradientUnits="userSpaceOnUse">
      <stop stop-color="#FF8C37" />
      <stop offset="1" stop-color="#F6C343" />
    </linearGradient>
    <linearGradient id="glass" x1="540" y1="320" x2="760" y2="540" gradientUnits="userSpaceOnUse">
      <stop stop-color="#89E4FF" stop-opacity="0.85" />
      <stop offset="1" stop-color="#1C8AD9" stop-opacity="0.65" />
    </linearGradient>
    <linearGradient id="rail" x1="200" y1="480" x2="840" y2="640" gradientUnits="userSpaceOnUse">
      <stop stop-color="#B4C5E0" stop-opacity="0.3" />
      <stop offset="1" stop-color="#89B0E6" stop-opacity="0" />
    </linearGradient>
    <filter id="dropshadow" x="500" y="210" width="280" height="340" color-interpolation-filters="sRGB" filterUnits="userSpaceOnUse">
      <feDropShadow dx="0" dy="12" stdDeviation="24" flood-color="#060912" flood-opacity="0.5" />
    </filter>
  </defs>
  <rect width="980" height="720" rx="28" fill="url(#bg)" />
  <circle cx="170" cy="210" r="120" fill="url(#sun)" />
  <path d="M120 540C270 470 420 460 660 500C770 520 880 580 960 610V660H40V580C70 570 90 560 120 540Z" fill="#0A1021" />
  <path d="M120 520C280 470 440 460 620 490C720 510 850 560 920 600" stroke="url(#rail)" stroke-width="14" stroke-linecap="round" />
  <path d="M140 556C300 504 440 498 620 526C740 546 870 596 930 626" stroke="url(#rail)" stroke-width="10" stroke-linecap="round" />
  <g opacity="0.5">
    <path d="M210 420L360 300C410 258 460 250 520 260L720 296C760 304 800 326 820 360L880 470C900 505 890 548 856 572L760 640" stroke="#1D90D8" stroke-width="6" stroke-linecap="round" stroke-dasharray="16 20" />
    <circle cx="360" cy="300" r="12" fill="#89E4FF" />
    <circle cx="720" cy="296" r="12" fill="#89E4FF" />
    <circle cx="820" cy="360" r="12" fill="#89E4FF" />
  </g>
  <g filter="url(#dropshadow)">
    <rect x="520" y="230" width="240" height="300" rx="28" fill="#11182F" stroke="rgba(255,255,255,0.08)" />
  </g>
  <g>
    <path d="M602 200C630 200 654 221 658 249L668 330C672 357 656 382 630 389L568 406C542 413 515 398 507 372L488 312C479 284 497 255 526 250L588 200H602Z" fill="url(#glass)" opacity="0.78" />
    <rect x="512" y="320" width="40" height="80" rx="10" fill="#0F162C" opacity="0.8" />
    <rect x="560" y="310" width="120" height="160" rx="28" fill="url(#vest)" />
    <rect x="600" y="300" width="62" height="30" rx="10" fill="#12203E" opacity="0.85" />
    <rect x="604" y="310" width="22" height="10" rx="5" fill="#1B2D52" />
    <path d="M600 470L660 520L634 568C622 589 595 596 572 586L512 558L548 470H600Z" fill="#0F162C" />
    <path d="M640 470L700 518L694 560C690 585 660 595 640 578L586 530L640 470Z" fill="#14213B" />
    <rect x="520" y="228" width="140" height="38" rx="12" fill="#E16D22" />
    <rect x="522" y="232" width="136" height="30" rx="10" fill="#FF9838" />
    <path d="M552 222C558 208 572 200 588 200H606C624 200 640 212 644 230L648 248H534L552 222Z" fill="#0F162C" />
    <circle cx="594" cy="254" r="8" fill="#0F162C" />
  </g>
  <g opacity="0.8">
    <rect x="240" y="340" width="140" height="72" rx="18" fill="#11182F" />
    <rect x="240" y="340" width="140" height="72" rx="18" fill="#19233E" />
    <path d="M260 382H358" stroke="#5ED3FF" stroke-width="6" stroke-linecap="round" />
    <path d="M260 365H320" stroke="#F7D36C" stroke-width="6" stroke-linecap="round" />
    <circle cx="280" cy="360" r="8" fill="#89E4FF" />
  </g>
  <g>
    <rect x="700" y="360" width="140" height="90" rx="22" fill="#11182F" />
    <rect x="700" y="360" width="140" height="90" rx="22" fill="#1C2742" />
    <circle cx="726" cy="386" r="8" fill="#F9CF6A" />
    <circle cx="760" cy="386" r="8" fill="#6BE8FF" />
    <circle cx="794" cy="386" r="8" fill="#FF8B37" />
    <path d="M724 414H820" stroke="#5ED3FF" stroke-width="6" stroke-linecap="round" />
    <path d="M724 432H804" stroke="#F7D36C" stroke-width="6" stroke-linecap="round" />
  </g>
  <g>
    <rect x="320" y="470" width="220" height="120" rx="28" fill="#11182F" />
    <rect x="330" y="480" width="200" height="100" rx="24" fill="#16223C" />
    <path d="M350 536H510" stroke="#5ED3FF" stroke-width="8" stroke-linecap="round" />
    <path d="M350 520H486" stroke="#F7D36C" stroke-width="8" stroke-linecap="round" />
    <path d="M350 552H458" stroke="#6BE8FF" stroke-width="8" stroke-linecap="round" />
    <rect x="360" y="490" width="60" height="16" rx="8" fill="#F9CF6A" />
    <rect x="430" y="490" width="80" height="16" rx="8" fill="#5ED3FF" />
  </g>
  <circle cx="820" cy="240" r="44" fill="#89E4FF" opacity="0.38" />
  <circle cx="840" cy="220" r="14" fill="#F9CF6A" opacity="0.9" />
  <circle cx="860" cy="260" r="10" fill="#5ED3FF" />
  <rect x="120" y="260" width="110" height="18" rx="9" fill="#F9CF6A" opacity="0.6" />
  <rect x="150" y="290" width="110" height="18" rx="9" fill="#5ED3FF" opacity="0.6" />
  <rect x="300" y="240" width="140" height="18" rx="9" fill="#1D90D8" opacity="0.6" />
</svg>
